<svg width="139" height="17" viewBox="0 0 139 17" fill="none" xmlns="http://www.w3.org/2000/svg">
<path d="M22.8251 12.837V16.1653H20.6193V6.73804L20.7101 6.66663H32.1898C33.2515 6.66663 33.9247 6.81074 34.3219 7.0563C34.6668 7.2695 34.8544 7.59064 34.8544 8.16829V10.5067C34.8544 11.1102 34.6625 11.4411 34.3186 11.6575C33.9228 11.9065 33.2517 12.0515 32.1898 12.0515H23.619H23.4162L23.2706 12.1929L22.9767 12.4784L22.8251 12.6257V12.837ZM32.5405 10.5843C32.5924 10.4893 32.6282 10.3896 32.6517 10.2877L32.7118 10.2656V9.91672V8.81486C32.7118 8.58471 32.6701 8.35442 32.5508 8.14828C32.4281 7.9363 32.2483 7.79303 32.0475 7.69971C31.6836 7.5306 31.2009 7.50665 30.7119 7.50665H23.6328H23.4299L23.2844 7.64803L22.9904 7.9336L22.8388 8.08087V8.29222V10.4474V10.6783L23.0146 10.828L23.3497 11.1136L23.4899 11.233H23.674H30.6899C31.1936 11.233 31.6815 11.2121 32.0431 11.042C32.2461 10.9465 32.4228 10.7994 32.5405 10.5843Z" fill="white" stroke="white"/>
<mask id="path-2-inside-1" fill="white">
<path d="M41.277 8.08749L44.068 12.0908L43.9004 12.4599H37.736L36.1537 14.378H45.3179L45.9826 14.7471L47.4001 16.6653H51.1059L42.9856 6.04541"/>
</mask>
<path d="M41.277 8.08749L44.068 12.0908L43.9004 12.4599H37.736L36.1537 14.378H45.3179L45.9826 14.7471L47.4001 16.6653H51.1059L42.9856 6.04541" fill="white"/>
<path d="M44.068 12.0908L44.9785 12.5042L45.2138 11.9859L44.8883 11.5189L44.068 12.0908ZM43.9004 12.4599V13.4599H44.5446L44.8109 12.8733L43.9004 12.4599ZM37.736 12.4599V11.4599H37.2646L36.9646 11.8236L37.736 12.4599ZM36.1537 14.378L35.3823 13.7417L34.0325 15.378H36.1537V14.378ZM45.3179 14.378L45.8033 13.5038L45.5768 13.378H45.3179V14.378ZM45.9826 14.7471L46.7869 14.1528L46.6578 13.9782L46.468 13.8728L45.9826 14.7471ZM47.4001 16.6653L46.5959 17.2596L46.8957 17.6653H47.4001V16.6653ZM51.1059 16.6653V17.6653H53.1293L51.9002 16.0579L51.1059 16.6653ZM40.4566 8.65939L43.2476 12.6627L44.8883 11.5189L42.0973 7.51558L40.4566 8.65939ZM43.1574 11.6774L42.9898 12.0465L44.8109 12.8733L44.9785 12.5042L43.1574 11.6774ZM43.9004 11.4599H37.736V13.4599H43.9004V11.4599ZM36.9646 11.8236L35.3823 13.7417L36.9252 15.0144L38.5074 13.0962L36.9646 11.8236ZM36.1537 15.378H45.3179V13.378H36.1537V15.378ZM44.8325 15.2523L45.4972 15.6214L46.468 13.8728L45.8033 13.5038L44.8325 15.2523ZM45.1784 15.3414L46.5959 17.2596L48.2043 16.071L46.7869 14.1528L45.1784 15.3414ZM47.4001 17.6653H51.1059V15.6653H47.4001V17.6653ZM51.9002 16.0579L43.78 5.438L42.1912 6.65282L50.3115 17.2727L51.9002 16.0579Z" fill="white" mask="url(#path-2-inside-1)"/>
<mask id="path-4-inside-2" fill="white">
<path d="M78.0543 14.6232V11.7649L78.3894 11.4793H84.595V9.68237H74.7661V16.6653H89.2595V14.8684H78.4307"/>
</mask>
<path d="M78.0543 14.6232V11.7649L78.3894 11.4793H84.595V9.68237H74.7661V16.6653H89.2595V14.8684H78.4307" fill="white"/>
<path d="M78.0543 11.7649L77.4057 11.0037L77.0543 11.3032V11.7649H78.0543ZM78.3894 11.4793V10.4793H78.0212L77.7409 10.7181L78.3894 11.4793ZM84.595 11.4793V12.4793H85.595V11.4793H84.595ZM84.595 9.68237H85.595V8.68237H84.595V9.68237ZM74.7661 9.68237V8.68237H73.7661V9.68237H74.7661ZM74.7661 16.6653H73.7661V17.6653H74.7661V16.6653ZM89.2595 16.6653V17.6653H90.2595V16.6653H89.2595ZM89.2595 14.8684H90.2595V13.8684H89.2595V14.8684ZM79.0543 14.6232V11.7649H77.0543V14.6232H79.0543ZM78.7029 12.526L79.038 12.2404L77.7409 10.7181L77.4057 11.0037L78.7029 12.526ZM78.3894 12.4793H84.595V10.4793H78.3894V12.4793ZM85.595 11.4793V9.68237H83.595V11.4793H85.595ZM84.595 8.68237H74.7661V10.6824H84.595V8.68237ZM73.7661 9.68237V16.6653H75.7661V9.68237H73.7661ZM74.7661 17.6653H89.2595V15.6653H74.7661V17.6653ZM90.2595 16.6653V14.8684H88.2595V16.6653H90.2595ZM89.2595 13.8684H78.4307V15.8684H89.2595V13.8684Z" fill="white" mask="url(#path-4-inside-2)"/>
<path d="M75.2661 6.66934H88.8858V7.6306H75.2661V6.66934Z" fill="white" stroke="white"/>
<mask id="path-7-inside-3" fill="white">
<path d="M58.4816 8.04708H70.2691C70.1015 6.57614 69.1428 6.16125 66.8106 6.16125H58.3552C55.6906 6.16125 54.8555 6.65157 54.8555 8.65323V14.2137C54.8555 16.175 55.6796 16.7057 58.3552 16.7057H66.8023C69.1758 16.7057 70.0988 16.2558 70.1757 14.7444H58.4733L58.1382 14.4185V8.29223"/>
</mask>
<path d="M58.4816 8.04708H70.2691C70.1015 6.57614 69.1428 6.16125 66.8106 6.16125H58.3552C55.6906 6.16125 54.8555 6.65157 54.8555 8.65323V14.2137C54.8555 16.175 55.6796 16.7057 58.3552 16.7057H66.8023C69.1758 16.7057 70.0988 16.2558 70.1757 14.7444H58.4733L58.1382 14.4185V8.29223" fill="white"/>
<path d="M70.2691 8.04708V9.04708H71.3895L71.2627 7.93389L70.2691 8.04708ZM70.1757 14.7444L71.1744 14.7953L71.2279 13.7444H70.1757V14.7444ZM58.4733 14.7444L57.7761 15.4613L58.0672 15.7444H58.4733V14.7444ZM58.1382 14.4185H57.1382V14.8408L57.4409 15.1353L58.1382 14.4185ZM58.4816 9.04708H70.2691V7.04708H58.4816V9.04708ZM71.2627 7.93389C71.2096 7.46839 71.0864 7.01561 70.8397 6.61116C70.5865 6.19609 70.2361 5.88574 69.8135 5.66565C69.0264 5.25569 67.984 5.16125 66.8106 5.16125V7.16125C67.9694 7.16125 68.5724 7.27426 68.8896 7.43947C69.0192 7.50697 69.0856 7.57614 69.1322 7.65257C69.1853 7.73961 69.2447 7.89029 69.2755 8.16026L71.2627 7.93389ZM66.8106 5.16125H58.3552V7.16125H66.8106V5.16125ZM58.3552 5.16125C57.0442 5.16125 55.8674 5.26306 55.0393 5.83276C54.0825 6.49103 53.8555 7.54833 53.8555 8.65323H55.8555C55.8555 7.75647 56.046 7.56778 56.1729 7.48048C56.4285 7.30461 57.0016 7.16125 58.3552 7.16125V5.16125ZM53.8555 8.65323V14.2137H55.8555V8.65323H53.8555ZM53.8555 14.2137C53.8555 15.3021 54.0814 16.3523 55.029 17.0148C55.855 17.5922 57.0303 17.7057 58.3552 17.7057V15.7057C57.0045 15.7057 56.4299 15.5538 56.1749 15.3756C56.0416 15.2824 55.8555 15.0865 55.8555 14.2137H53.8555ZM58.3552 17.7057H66.8023V15.7057H58.3552V17.7057ZM66.8023 17.7057C67.9949 17.7057 69.0554 17.604 69.8396 17.1639C70.2639 16.9258 70.6037 16.5922 70.8343 16.1552C71.0573 15.7327 71.1504 15.2665 71.1744 14.7953L69.177 14.6936C69.1625 14.9781 69.1114 15.1349 69.0655 15.2217C69.0273 15.2942 68.9736 15.3565 68.8608 15.4198C68.5709 15.5825 67.9832 15.7057 66.8023 15.7057V17.7057ZM70.1757 13.7444H58.4733V15.7444H70.1757V13.7444ZM59.1706 14.0276L58.8354 13.7016L57.4409 15.1353L57.7761 15.4613L59.1706 14.0276ZM59.1382 14.4185V8.29223H57.1382V14.4185H59.1382Z" fill="white" mask="url(#path-7-inside-3)"/>
<path d="M3.29107 10.5801L3.44047 10.7508H3.66729H12.2051C13.5417 10.7508 14.2808 10.893 14.6922 11.1748C15.0415 11.4141 15.246 11.8264 15.246 12.7428V14.1814C15.246 15.1232 15.0397 15.5309 14.695 15.7636C14.2843 16.0409 13.5467 16.1734 12.2051 16.1734H3.45852C2.31456 16.1734 1.6052 16.0773 1.165 15.8657C0.959111 15.7668 0.820469 15.6459 0.720804 15.4981C0.667622 15.4193 0.620654 15.3255 0.581556 15.2121H12.6226H12.8764L13.0263 15.0072L13.235 14.7216L13.3314 14.5898V14.4265V12.5407V12.3307L13.1815 12.1837L12.9315 11.9386L12.7857 11.7956H12.5814H4.04089C2.69836 11.7956 1.97424 11.6527 1.57685 11.3744C1.23989 11.1385 1.04391 10.7287 1.04391 9.80357V8.6182C1.04391 7.66893 1.24311 7.26322 1.57681 7.03335C1.97475 6.75922 2.69785 6.62622 4.04089 6.62622H12.0732C13.6102 6.62622 14.3772 6.9617 14.7362 7.46355H3.66729H3.48866L3.35047 7.57674L3.10049 7.78148L2.91731 7.93152V8.1683V9.96522V10.1531L3.04109 10.2945L3.29107 10.5801Z" fill="white" stroke="white"/>
<mask id="path-10-inside-4" fill="white">
<path d="M98.591 6.12622H93.759L93.509 6.61653L98.841 10.4555C99.8409 9.88439 100.964 9.31326 102.137 8.73943"/>
</mask>
<path d="M98.591 6.12622H93.759L93.509 6.61653L98.841 10.4555C99.8409 9.88439 100.964 9.31326 102.137 8.73943" fill="white"/>
<path d="M93.759 6.12622V5.12622H93.1464L92.8681 5.67201L93.759 6.12622ZM93.509 6.61653L92.6181 6.16232L92.2284 6.92673L92.9247 7.42807L93.509 6.61653ZM98.841 10.4555L98.2567 11.2671L98.7786 11.6428L99.337 11.3239L98.841 10.4555ZM98.591 5.12622H93.759V7.12622H98.591V5.12622ZM92.8681 5.67201L92.6181 6.16232L94.3999 7.07075L94.6499 6.58043L92.8681 5.67201ZM92.9247 7.42807L98.2567 11.2671L99.4253 9.64399L94.0933 5.805L92.9247 7.42807ZM99.337 11.3239C100.309 10.7686 101.41 10.2085 102.577 9.6377L101.698 7.84116C100.519 8.41801 99.3728 9.00016 98.3451 9.58719L99.337 11.3239Z" fill="white" mask="url(#path-10-inside-4)"/>
<mask id="path-12-inside-5" fill="white">
<path d="M102.923 13.3166L107.629 16.6653H112.461L112.67 16.2154L105.673 11.191C104.755 11.8861 103.797 12.5811 102.926 13.3166"/>
</mask>
<path d="M102.923 13.3166L107.629 16.6653H112.461L112.67 16.2154L105.673 11.191C104.755 11.8861 103.797 12.5811 102.926 13.3166" fill="white"/>
<path d="M107.629 16.6653L107.049 17.48L107.309 17.6653H107.629V16.6653ZM112.461 16.6653V17.6653H113.099L113.368 17.0862L112.461 16.6653ZM112.67 16.2154L113.577 16.6363L113.925 15.8858L113.253 15.4031L112.67 16.2154ZM105.673 11.191L106.256 10.3787L105.657 9.94849L105.069 10.3939L105.673 11.191ZM102.343 14.1314L107.049 17.48L108.209 15.8505L103.503 12.5018L102.343 14.1314ZM107.629 17.6653H112.461V15.6653H107.629V17.6653ZM113.368 17.0862L113.577 16.6363L111.763 15.7944L111.554 16.2443L113.368 17.0862ZM113.253 15.4031L106.256 10.3787L105.09 12.0033L112.086 17.0276L113.253 15.4031ZM105.069 10.3939C104.175 11.0712 103.178 11.7944 102.281 12.5526L103.571 14.0806C104.415 13.3678 105.336 12.7009 106.277 11.9881L105.069 10.3939Z" fill="white" mask="url(#path-12-inside-5)"/>
<mask id="path-14-inside-6" fill="white">
<path d="M97.8824 16.6653H93.5091L93.1355 16.0941C96.0913 13.2735 109.343 1.27697 138.118 0C138.118 0 114.002 0.808209 97.8824 16.6653"/>
</mask>
<path d="M97.8824 16.6653H93.5091L93.1355 16.0941C96.0913 13.2735 109.343 1.27697 138.118 0C138.118 0 114.002 0.808209 97.8824 16.6653" fill="#B2B0B2"/>
<path d="M93.5091 16.6653L92.6722 17.2127L92.9683 17.6653H93.5091V16.6653ZM93.1355 16.0941L92.4451 15.3707L91.8431 15.9452L92.2986 16.6416L93.1355 16.0941ZM138.118 0L138.162 0.999017L138.085 -0.999439L138.118 0ZM97.8824 15.6653H93.5091V17.6653H97.8824V15.6653ZM94.346 16.1179L93.9724 15.5467L92.2986 16.6416L92.6722 17.2127L94.346 16.1179ZM93.8259 16.8176C96.6573 14.1156 109.691 2.26253 138.162 0.999017L138.074 -0.999017C108.995 0.291415 95.5253 12.4314 92.4451 15.3707L93.8259 16.8176ZM138.118 0C138.085 -0.999439 138.084 -0.999425 138.084 -0.999409C138.083 -0.999399 138.083 -0.999379 138.082 -0.999359C138.081 -0.999319 138.08 -0.999265 138.078 -0.999198C138.074 -0.999062 138.069 -0.998869 138.062 -0.998612C138.049 -0.998098 138.03 -0.997328 138.005 -0.996246C137.955 -0.994083 137.883 -0.990675 137.789 -0.985585C137.602 -0.975406 137.327 -0.958498 136.974 -0.931364C136.267 -0.877103 135.245 -0.781911 133.97 -0.617763C131.422 -0.289586 127.857 0.314883 123.783 1.42118C115.647 3.6305 105.408 7.85969 97.1811 15.9524L98.5837 17.3782C106.477 9.6138 116.356 5.51035 124.307 3.3513C128.277 2.27341 131.749 1.68476 134.226 1.36586C135.464 1.20647 136.452 1.11464 137.127 1.06276C137.465 1.03682 137.724 1.02088 137.898 1.01148C137.984 1.00678 138.049 1.00371 138.092 1.00185C138.113 1.00092 138.129 1.00029 138.139 0.999905C138.144 0.999713 138.148 0.999583 138.15 0.999507C138.151 0.999469 138.151 0.999445 138.152 0.999434C138.152 0.999429 138.152 0.99943 138.152 0.999427C138.152 0.999432 138.152 0.999439 138.118 0Z" fill="white" mask="url(#path-14-inside-6)"/>
</svg>
